<svg version="1" xmlns="http://www.w3.org/2000/svg" width="2048" height="2048" viewBox="0 0 1536.000000 1536.000000"><path d="M670 98v98H0v948h241c132.6 0 241 .2 241 .5s-43.9 88.3-97.5 195.5-97.5 195.2-97.5 195.5c0 .3 44 .5 97.8.5h97.7l98-196 98-196h179l98 196 98 196h97.7c53.8 0 97.8-.2 97.8-.5s-43.9-88.3-97.5-195.5-97.5-195.2-97.5-195.5c0-.3 108.5-.5 241-.5h241V196H866V0H670v98zM563 597c45.9 91.8 83.7 167 84 167 .3 0 27.5-54 60.5-120s60.2-120 60.5-120c.3 0 27.5 54 60.5 120s60.2 120 60.5 120c.3 0 38.1-75.2 84-167l83.5-167h47.7c26.3 0 47.8.2 47.8.5s-48.5 97.5-107.7 216L936.5 862h-95L805 789c-20.1-40.2-36.7-73-37-73-.3 0-16.9 32.9-37 73l-36.5 73h-95L491.7 646.5C432.5 528 384 430.8 384 430.5c0-.3 21.5-.5 47.8-.5h47.7L563 597z"/></svg>